<svg xmlns="http://www.w3.org/2000/svg" enable-background="new 0 0 512 512" viewBox="0 0 512 512" id="invitation"><polygon fill="#265e87" points="507 267 256 80 5 267 256 507"></polygon><linearGradient id="a" x1="256" x2="256" y1="226" y2="393.765" gradientUnits="userSpaceOnUse"><stop offset="0" stop-color="#ffc970"></stop><stop offset=".757" stop-color="#ffb233"></stop></linearGradient><path fill="url(#a)" d="M419,507H93V25c0-11,9-20,20-20h286c11,0,20,9,20,20V507z"></path><path fill="#9cd3fc" d="M166 96L166 96c0-11-9-20-20-20v0c11 0 20-9 20-20h0c0 11 9 20 20 20v0C175 76 166 85 166 96zM306 276L306 276c0-11-9-20-20-20v0c11 0 20-9 20-20h0c0 11 9 20 20 20v0C315 256 306 265 306 276z"></path><linearGradient id="b" x1="146" x2="300" y1="199" y2="199" gradientUnits="userSpaceOnUse"><stop offset="0" stop-color="#b23998"></stop><stop offset="1" stop-color="#8b2d77"></stop></linearGradient><polygon fill="url(#b)" points="146 276 300 199 223 122"></polygon><polygon fill="#9cd3fc" points="192 253 202 248 202 164 192 184"></polygon><polygon fill="#9cd3fc" points="244 227 254 222 254 153 244 143"></polygon><rect width="10" height="106.1" x="323.5" y="40.5" fill="#265e87" transform="rotate(45.001 328.503 93.497)"></rect><path fill="#265e87" d="M263.5 115.9l-9-4.3 18.8-39.7c.5-1 .7-2.1.7-3.3 0-4.2-3.4-7.7-7.7-7.7-4.6 0-8.3 3.7-8.3 8.3V74h-10v-4.7c0-10.1 8.2-18.3 18.3-18.3 9.7 0 17.7 7.9 17.7 17.7 0 2.6-.6 5.2-1.7 7.6L263.5 115.9zM302.6 170.1l-5.7-8.2 31.5-21.6c7.8-5.4 17-8.2 26.5-8.2 8.8 0 16 7.2 16 16s-7.2 16-16 16h-9v-10h9c3.3 0 6-2.7 6-6s-2.7-6-6-6c-7.5 0-14.7 2.2-20.9 6.5L302.6 170.1z"></path><linearGradient id="c" x1="5" x2="504.325" y1="387" y2="387" gradientUnits="userSpaceOnUse"><stop offset="0" stop-color="#4893cc"></stop><stop offset="1" stop-color="#3179af"></stop></linearGradient><polygon fill="url(#c)" points="256 454 5 267 5 267 5 267 5 507 507 507 507 267"></polygon><linearGradient id="d" x1="256" x2="256" y1="348" y2="507.003" gradientUnits="userSpaceOnUse"><stop offset=".111" stop-color="#265e87" stop-opacity="0"></stop><stop offset=".54" stop-color="#265e87"></stop></linearGradient><polygon fill="url(#d)" points="507 483.1 362 375 256 454 150 375 5 483.1 5 507 507 507"></polygon><linearGradient id="e" x1="84" x2="385.027" y1="413.5" y2="413.5" gradientUnits="userSpaceOnUse"><stop offset="0" stop-color="#4893cc"></stop><stop offset="1" stop-color="#3179af"></stop></linearGradient><polygon fill="url(#e)" points="507 507 256 320 5 507"></polygon><g><path fill="#4d2162" d="M507,512H5c-2.8,0-5-2.2-5-5V267h10v235h492V267h10v240C512,509.8,509.8,512,507,512z"></path><path fill="#4d2162" d="M163.1 391L2 271c-1.3-.9-2-2.4-2-4s.7-3.1 2-4l71.3-53.1 6 8L13.4 267l155.7 116L163.1 391zM348.9 391.2l-6-8 71.1-53V201.4c0-1.9 1.1-3.6 2.8-4.5 1.7-.8 3.7-.7 5.2.5l88 65.7c1.3.9 2 2.4 2 4s-.7 3.1-2 4L348.9 391.2zM424 211.4v111.4l74.6-55.7L424 211.4z"></path><path fill="#4d2162" d="M507 512H5c-2.2 0-4.1-1.4-4.7-3.4-.7-2 0-4.3 1.8-5.6l251-187c1.8-1.3 4.2-1.3 6 0l251 187c1.7 1.3 2.4 3.5 1.8 5.6C511.1 510.6 509.2 512 507 512zM20.1 502h471.8L256 326.2 20.1 502zM98 332.6H88V25c0-13.8 11.2-25 25-25h286c13.8 0 25 11.2 25 25v156.4h-10V25c0-8.3-6.7-15-15-15H113c-8.3 0-15 6.7-15 15V332.6z"></path><path fill="#4d2162" d="M166 101c-2.8 0-5-2.2-5-5 0-8.3-6.7-15-15-15-2.8 0-5-2.2-5-5s2.2-5 5-5c8.3 0 15-6.7 15-15 0-2.8 2.2-5 5-5s5 2.2 5 5c0 8.3 6.7 15 15 15 2.8 0 5 2.2 5 5s-2.2 5-5 5c-8.3 0-15 6.7-15 15C171 98.8 168.8 101 166 101zM161 76c1.9 1.4 3.6 3.1 5 5 1.4-1.9 3.1-3.6 5-5-1.9-1.4-3.6-3.1-5-5C164.6 72.9 162.9 74.6 161 76zM306 281c-2.8 0-5-2.2-5-5 0-8.3-6.7-15-15-15-2.8 0-5-2.2-5-5s2.2-5 5-5c8.3 0 15-6.7 15-15 0-2.8 2.2-5 5-5s5 2.2 5 5c0 8.3 6.7 15 15 15 2.8 0 5 2.2 5 5s-2.2 5-5 5c-8.3 0-15 6.7-15 15C311 278.8 308.8 281 306 281zM301 256c1.9 1.4 3.6 3.1 5 5 1.4-1.9 3.1-3.6 5-5-1.9-1.4-3.6-3.1-5-5C304.6 252.9 302.9 254.6 301 256zM146 281c-1.3 0-2.6-.5-3.5-1.5-1.5-1.5-1.9-3.8-.9-5.8l77-154c.7-1.4 2.1-2.4 3.7-2.7 1.6-.3 3.2.3 4.3 1.4l77 77c1.1 1.1 1.7 2.8 1.4 4.3-.3 1.6-1.3 3-2.7 3.7l-154 77C147.5 280.8 146.8 281 146 281zM224.4 130.4l-67.2 134.4 134.4-67.2L224.4 130.4z"></path><rect width="10" height="76" x="192" y="174" fill="#4d2162"></rect><rect width="10" height="76" x="244" y="148" fill="#4d2162"></rect><rect width="10" height="106.1" x="323.5" y="40.5" fill="#4d2162" transform="rotate(45.001 328.503 93.497)"></rect><path fill="#4d2162" d="M263.5 115.9l-9-4.3 18.8-39.7c.5-1 .7-2.1.7-3.3 0-4.2-3.4-7.7-7.7-7.7-4.6 0-8.3 3.7-8.3 8.3V74h-10v-4.7c0-10.1 8.2-18.3 18.3-18.3 9.7 0 17.7 7.9 17.7 17.7 0 2.6-.6 5.2-1.7 7.6L263.5 115.9zM302.6 170.1l-5.7-8.2 31.5-21.6c7.8-5.4 17-8.2 26.5-8.2 8.8 0 16 7.2 16 16s-7.2 16-16 16h-9v-10h9c3.3 0 6-2.7 6-6s-2.7-6-6-6c-7.5 0-14.7 2.2-20.9 6.5L302.6 170.1z"></path></g></svg>